<?xml version="1.0" encoding="utf-8"?>
<!-- Generator: Adobe Illustrator 24.0.0, SVG Export Plug-In . SVG Version: 6.00 Build 0)  -->
<svg version="1.1" id="Layer_1" xmlns="http://www.w3.org/2000/svg" xmlns:xlink="http://www.w3.org/1999/xlink" x="0px" y="0px"
	 viewBox="0 0 18 18" style="enable-background:new 0 0 18 18;" xml:space="preserve">
<style type="text/css">
	.st0{fill-rule:evenodd;clip-rule:evenodd;fill:#FFE11B;}
	.st1{fill-rule:evenodd;clip-rule:evenodd;fill:#F9FBFC;}
	.st2{fill-rule:evenodd;clip-rule:evenodd;fill:#086E7D;}
</style>
<g>
	<ellipse class="st0" cx="9" cy="14.5" rx="9" ry="3.5"/>
	<path class="st1" d="M8.6,7c-1.1,0-2-0.8-2-1.8c0-0.5,0.2-1,0.6-1.3c0.4-0.3,0.9-0.5,1.4-0.5c1.1,0,2,0.8,2,1.8
		c0,0.5-0.2,1-0.6,1.3S9.1,7,8.6,7z M3.1,5.2c0,3.9,5.5,8.9,5.5,8.9s5.5-5,5.5-8.9c0-2.9-2.5-5.2-5.5-5.2C5.6,0,3.1,2.3,3.1,5.2z"/>
	<path class="st2" d="M8.6,7c-1.1,0-2-0.8-2-1.8c0-0.5,0.2-1,0.6-1.3c0.4-0.3,0.9-0.5,1.4-0.5c1.1,0,2,0.8,2,1.8
		c0,0.5-0.2,1-0.6,1.3S9.1,7,8.6,7z M3.1,5.2c0,3.9,5.5,8.9,5.5,8.9s5.5-5,5.5-8.9c0-2.9-2.5-5.2-5.5-5.2C5.6,0,3.1,2.3,3.1,5.2z"/>
</g>
</svg>
