<?xml version="1.0" encoding="utf-8"?>
<!-- Generator: Adobe Illustrator 24.0.0, SVG Export Plug-In . SVG Version: 6.00 Build 0)  -->
<svg version="1.1" id="Layer_1" xmlns="http://www.w3.org/2000/svg" xmlns:xlink="http://www.w3.org/1999/xlink" x="0px" y="0px"
	 viewBox="0 0 24 24" style="enable-background:new 0 0 24 24;" xml:space="preserve">
<style type="text/css">
	.st0{filter:url(#Adobe_OpacityMaskFilter);}
	.st1{fill-rule:evenodd;clip-rule:evenodd;fill:#FFFFFF;}
	.st2{mask:url(#b_1_);fill-rule:evenodd;clip-rule:evenodd;fill:#086E7D;}
	.st3{fill:#FFFFFF;}
</style>
<g transform="translate(2 2)">
	<defs>
		<filter id="Adobe_OpacityMaskFilter" filterUnits="userSpaceOnUse" x="-5.6" y="-5.6" width="31.1" height="31.1">
			<feColorMatrix  type="matrix" values="1 0 0 0 0  0 1 0 0 0  0 0 1 0 0  0 0 0 1 0"/>
		</filter>
	</defs>
	<mask maskUnits="userSpaceOnUse" x="-5.6" y="-5.6" width="31.1" height="31.1" id="b_1_">
		<g class="st0">
			<path id="a_1_" class="st1" d="M0,10c0,5.5,4.5,10,10,10s10-4.5,10-10S15.5,0,10,0S0,4.5,0,10z"/>
		</g>
	</mask>
	<path class="st2" d="M-5.6,25.6h31.1V-5.6H-5.6V25.6z"/>
</g>
<g>
	<path class="st3" d="M15.3,8.9h-0.8C14.4,8.5,14.2,8,14,7.7h1.3c0.3,0,0.6-0.2,0.6-0.5c0-0.3-0.2-0.5-0.6-0.5h-4.4c0,0,0,0,0,0
		c0,0,0,0,0,0H8.7c-0.3,0-0.6,0.2-0.6,0.5s0.2,0.5,0.6,0.5h2.5C12,7.7,12.8,8,13,8.9H8.7c-0.3,0-0.6,0.2-0.6,0.6
		c0,0.3,0.2,0.6,0.6,0.6H13c-0.3,0.7-1,1.1-2,1.1H9.9h0H9.2c-0.3,0-0.5,0.2-0.5,0.5c0,0.3,0.2,0.5,0.5,0.5h0.6c0,0,0,0,0,0h1
		c1.1,0,1.6,0.5,1.9,1.8c0.2,1,0.4,1.6,0.5,2c0.1,0.3,0.3,0.9,0.6,1.2c0.1,0.1,0.3,0.2,0.5,0.2c0.2,0,0.3-0.1,0.5-0.2
		c0.2-0.2,0.2-0.6,0-0.9c0,0,0,0,0,0c-0.2-0.4-0.4-1.4-0.7-2.6c-0.2-1-0.7-1.7-1.3-1.9c0.8-0.3,1.4-0.9,1.6-1.7h0.9
		c0.3,0,0.6-0.2,0.6-0.6S15.6,8.9,15.3,8.9z"/>
</g>
</svg>
