<svg width="123" height="116" viewBox="0 0 123 116" fill="none" xmlns="http://www.w3.org/2000/svg">
<g clip-path="url(#clip0_305_8)">
<path fill-rule="evenodd" clip-rule="evenodd" d="M25.32 75.3101C26.2721 75.3101 27.1853 75.6883 27.8585 76.3615C28.5318 77.0348 28.91 77.9479 28.91 78.9001C28.91 79.8522 28.5318 80.7653 27.8585 81.4386C27.1853 82.1118 26.2721 82.4901 25.32 82.4901H18.58L9.7 108.07H112.93L103.29 82.4901H97.72C96.7679 82.4901 95.8547 82.1118 95.1815 81.4386C94.5082 80.7653 94.13 79.8522 94.13 78.9001C94.13 77.9479 94.5082 77.0348 95.1815 76.3615C95.8547 75.6883 96.7679 75.3101 97.72 75.3101H108.42L122.88 115.23H0L13.32 75.3101H25.32Z" fill="#0AA891"/>
<path fill-rule="evenodd" clip-rule="evenodd" d="M79.06 83.64C74.5908 88.5555 69.4461 92.8114 63.78 96.28C63.4284 96.5414 63.0054 96.6891 62.5675 96.7034C62.1297 96.7177 61.6979 96.5979 61.33 96.36C53.2414 91.2497 46.0599 84.8286 40.08 77.36C32.34 67.69 27.46 56.92 25.8 46.55C24.14 36.18 25.69 25.92 30.92 17.69C33.0471 14.3474 35.721 11.3861 38.83 8.93C46.21 3.05 54.64 -0.0600024 63 -2.41795e-06C71.5733 0.123886 79.7852 3.47294 86 9.38C88.3899 11.5642 90.4542 14.0798 92.13 16.85C97.76 26.12 98.97 37.94 96.5 49.92C93.7603 62.4989 87.7358 74.127 79.04 83.62V83.62L79.06 83.64ZM61.44 18.7C65.0119 18.7 68.5036 19.7592 71.4736 21.7437C74.4435 23.7281 76.7583 26.5487 78.1253 29.8487C79.4922 33.1488 79.8498 36.78 79.153 40.2833C78.4561 43.7866 76.7361 47.0046 74.2103 49.5303C71.6846 52.0561 68.4666 53.7761 64.9633 54.473C61.46 55.1698 57.8288 54.8122 54.5287 53.4453C51.2287 52.0783 48.4081 49.7635 46.4237 46.7936C44.4392 43.8236 43.38 40.3319 43.38 36.76C43.38 31.9702 45.2827 27.3766 48.6696 23.9896C52.0566 20.6027 56.6502 18.7 61.44 18.7V18.7Z" fill="#0AA891"/>
</g>
<defs>
<clipPath id="clip0_305_8">
<rect width="122.88" height="115.23" fill="white"/>
</clipPath>
</defs>
</svg>
