<svg width="161" height="306" viewBox="0 0 161 306" fill="none" xmlns="http://www.w3.org/2000/svg">
<g clip-path="url(#clip0_305_6)">
<path d="M91.5782 103.342C94.7324 106.386 96.3544 110.1 96.4621 114.461C96.5878 118.845 95.1334 122.697 92.087 126.016C89.0645 129.138 85.3238 130.735 80.9008 130.831C76.4658 130.873 72.6712 129.395 69.547 126.369C66.3389 123.432 64.6751 119.718 64.5374 115.25C64.5195 114.461 64.5494 113.695 64.6272 112.941C56.5832 109.957 49.4788 106.577 43.2304 102.917L15.2738 128.809L13.7955 283.499C13.7895 284.564 13.987 285.604 14.3521 286.525C14.7471 287.458 15.2978 288.302 15.9501 288.966C16.5965 289.624 17.3686 290.156 18.1826 290.491C19.0265 290.826 19.9542 291.017 20.8998 291.017L139.675 292.207C140.722 292.225 141.692 292.052 142.548 291.735C143.427 291.4 144.229 290.904 144.882 290.299C145.594 289.648 146.175 288.84 146.564 287.985C146.953 287.07 147.192 286.053 147.204 285.018L147.013 128.983L77.4174 71.241L53.8779 93.0482C59.3184 95.955 65.495 98.6345 72.4378 101.051C74.754 99.6693 77.3576 98.9455 80.2484 98.8977C84.6654 98.8379 88.454 100.315 91.5782 103.342V103.342ZM45.6962 203.065L51.424 190.164H73.0483C72.773 189.237 72.3001 188.339 71.6178 187.466C70.9103 186.567 70.0565 185.792 69.0921 185.175C68.0516 184.508 66.9264 183.983 65.7464 183.614C64.5135 183.196 63.2027 183.004 61.8262 183.004H45.6962L51.424 170.097H113.304L107.576 183.004H92.6256C93.2182 183.453 93.7628 183.979 94.2715 184.589C94.7803 185.175 95.2352 185.773 95.6242 186.449C95.9953 187.095 96.3244 187.735 96.5998 188.381C96.8511 189.027 97.0367 189.625 97.1085 190.164H113.304L107.576 203.065H95.8516C94.9957 205.254 93.7269 207.323 92.0271 209.285C90.3154 211.253 88.3463 213 86.0899 214.561C83.8275 216.128 81.3796 217.414 78.7342 218.484C76.1505 219.527 73.4492 220.25 70.6901 220.637L103.213 254.096H77.5012L48.5152 222.3V210.458H61.3474C62.5743 210.458 63.7953 210.254 64.9863 209.847C66.1953 209.441 67.3085 208.896 68.3081 208.203C69.3255 207.539 70.2113 206.743 70.9475 205.858C71.6897 204.961 72.2163 204.046 72.5395 203.065H45.6962V203.065ZM31.4935 94.9322C16.4649 83.0298 8.64229 69.1895 6.2662 55.8875C3.2078 38.6559 9.21088 22.3214 20.5707 11.8425C32.0262 1.27985 48.8324 -3.40336 67.2128 2.73925C92.5 11.1846 121.013 40.9107 141.147 106.147L141.099 106.165L158.115 120.28C159.755 121.548 160.808 123.528 160.808 125.753L161 285.09C160.964 288.158 160.329 290.993 159.228 293.499C158.019 296.197 156.307 298.571 154.243 300.473C152.248 302.313 149.911 303.743 147.366 304.684C144.93 305.593 142.272 306.042 139.513 306L20.8699 304.81C18.033 304.81 15.3097 304.247 12.8977 303.249C10.3002 302.166 7.98991 300.569 6.09861 298.649C4.13549 296.645 2.54345 294.247 1.50802 291.609C0.49794 288.988 -0.0135709 286.201 -0.00023405 283.391L1.50203 126.094C1.40029 124.132 2.13646 122.134 3.69259 120.693L31.4935 94.9322V94.9322ZM120.75 89.2801C103.231 43.6142 81.7985 22.154 62.8317 15.82C49.7482 11.4478 37.9036 14.6656 29.9314 22.0164C21.8994 29.427 17.6619 41.0902 19.8704 53.4532C21.8156 64.2012 28.5728 75.5295 41.776 85.4103L72.4438 57.0059C74.9575 54.6972 78.8718 54.5357 81.5651 56.7667L120.75 89.2801V89.2801Z" fill="#0AA891"/>
</g>
<defs>
<clipPath id="clip0_305_6">
<rect width="161" height="306" fill="white"/>
</clipPath>
</defs>
</svg>
