<svg width="16" height="29" viewBox="0 0 16 29" fill="none" xmlns="http://www.w3.org/2000/svg">
<path d="M15.3361 25.0819C15.693 25.4573 15.868 25.9432 15.8611 26.4291C15.8542 26.915 15.6677 27.3964 15.2992 27.7625L15.2716 27.7902C14.9077 28.1356 14.4425 28.3037 13.9796 28.2968C13.5167 28.2899 13.0538 28.108 12.7015 27.751C8.6344 23.684 4.61111 19.5501 0.569397 15.4531C0.553276 15.4416 0.53946 15.4301 0.525642 15.4163C0.168682 15.0409 -0.0063467 14.5504 0.000562668 14.0645C0.00747204 13.5785 0.196317 13.0949 0.564793 12.7287L0.626972 12.6689C4.65026 8.62944 8.66895 4.57621 12.7038 0.543706C13.0561 0.189048 13.5167 0.00711342 13.9796 0.000204505C14.4425 -0.00670441 14.9077 0.161413 15.2716 0.509161L15.3061 0.543706C15.6677 0.907576 15.8542 1.38659 15.8611 1.87022C15.868 2.35384 15.693 2.84207 15.3361 3.21746L4.46142 14.1036L15.3361 25.0819Z" fill="black"/>
</svg>
