<?xml version="1.0" encoding="utf-8"?>
<!-- Generator: Adobe Illustrator 24.0.0, SVG Export Plug-In . SVG Version: 6.00 Build 0)  -->
<svg version="1.1" id="Layer_1" xmlns="http://www.w3.org/2000/svg" xmlns:xlink="http://www.w3.org/1999/xlink" x="0px" y="0px"
	 viewBox="0 0 448 512" style="enable-background:new 0 0 448 512;" xml:space="preserve">
<style type="text/css">
	.st0{fill:#0AA891;}
</style>
<path class="st0" d="M76.9,67.5h128.8c14.7,0,28.6,5.8,39,16.2l151.7,151.6c21.5,21.5,21.5,56.5,0,78.1l-115,115
	c-21.5,21.5-56.5,21.5-78.1,0L51.7,276.7c-10.3-10.3-16.2-24.3-16.2-39V108.9C35.5,86,54,67.5,76.9,67.5L76.9,67.5z M132,191.6
	c15.3,0,27.6-12.3,27.6-27.6c0-15.3-12.3-27.6-27.6-27.6c-15.2,0-27.6,12.3-27.6,27.6C104.4,179.3,116.8,191.6,132,191.6z"/>
</svg>
